<?xml version="1.0" encoding="UTF-8"?>
<svg width="60" height="60" viewBox="0 0 60 60" fill="none" xmlns="http://www.w3.org/2000/svg">
  <!-- Cloudflare orange background circle -->
  <circle cx="30" cy="30" r="30" fill="#F38020"/>
  
  <!-- Chat bubble icon in white -->
  <g fill="white">
    <!-- Main chat bubble -->
    <path d="M15 18 C15 15, 17 13, 20 13 L40 13 C43 13, 45 15, 45 18 L45 28 C45 31, 43 33, 40 33 L25 33 L18 38 L18 33 C15 33, 15 31, 15 28 Z" fill="white"/>
    
    <!-- Chat dots -->
    <circle cx="24" cy="24" r="2" fill="#F38020"/>
    <circle cx="30" cy="24" r="2" fill="#F38020"/>
    <circle cx="36" cy="24" r="2" fill="#F38020"/>
    
    <!-- Database icon overlay (smaller) -->
    <ellipse cx="42" cy="42" rx="8" ry="2" fill="white"/>
    <rect x="34" y="42" width="16" height="6" fill="white"/>
    <ellipse cx="42" cy="48" rx="8" ry="2" fill="white"/>
  </g>
  
  <!-- D1 text -->
  <text x="30" y="53" text-anchor="middle" font-family="Arial, sans-serif" font-size="6" font-weight="bold" fill="white">D1</text>
</svg>